<svg width="14" height="13" viewBox="0 0 14 13" fill="none" xmlns="http://www.w3.org/2000/svg">
<path d="M14 6.73908C13.9951 6.21297 13.7832 5.70998 13.41 5.33908L9.12 1.03908C8.93264 0.852833 8.67919 0.748291 8.415 0.748291C8.15081 0.748291 7.89736 0.852833 7.71 1.03908C7.61627 1.13205 7.54188 1.24265 7.49111 1.36451C7.44034 1.48637 7.4142 1.61707 7.4142 1.74908C7.4142 1.88109 7.44034 2.0118 7.49111 2.13366C7.54188 2.25552 7.61627 2.36612 7.71 2.45908L11 5.73908H1C0.734784 5.73908 0.48043 5.84444 0.292893 6.03197C0.105357 6.21951 0 6.47386 0 6.73908C0 7.00429 0.105357 7.25865 0.292893 7.44618C0.48043 7.63372 0.734784 7.73908 1 7.73908H11L7.71 11.0291C7.5217 11.2161 7.41538 11.4702 7.41444 11.7355C7.41351 12.0009 7.51802 12.2558 7.705 12.4441C7.89198 12.6324 8.1461 12.7387 8.41146 12.7396C8.67683 12.7406 8.9317 12.636 9.12 12.4491L13.41 8.14908C13.7856 7.77573 13.9978 7.26865 14 6.73908Z" fill="#43437A"/>
</svg>
