<svg width="25" height="25" viewBox="0 0 25 25" fill="none" xmlns="http://www.w3.org/2000/svg">
<path d="M15.8998 10.811L11.3098 6.22103C11.1224 6.03478 10.869 5.93024 10.6048 5.93024C10.3406 5.93024 10.0872 6.03478 9.8998 6.22103C9.80607 6.31399 9.73168 6.42459 9.68091 6.54645C9.63014 6.66831 9.604 6.79902 9.604 6.93103C9.604 7.06304 9.63014 7.19375 9.68091 7.31561C9.73168 7.43747 9.80607 7.54807 9.8998 7.64103L14.4998 12.221C14.5935 12.314 14.6679 12.4246 14.7187 12.5465C14.7695 12.6683 14.7956 12.799 14.7956 12.931C14.7956 13.063 14.7695 13.1937 14.7187 13.3156C14.6679 13.4375 14.5935 13.5481 14.4998 13.641L9.8998 18.221C9.7115 18.408 9.60518 18.6621 9.60425 18.9275C9.60331 19.1929 9.70783 19.4477 9.8948 19.636C10.0818 19.8243 10.3359 19.9307 10.6013 19.9316C10.8666 19.9325 11.1215 19.828 11.3098 19.641L15.8998 15.051C16.4616 14.4885 16.7772 13.726 16.7772 12.931C16.7772 12.136 16.4616 11.3735 15.8998 10.811Z" fill="#ECEDEB"/>
</svg>
