<svg width="24" height="24" viewBox="0 0 24 24" fill="none" xmlns="http://www.w3.org/2000/svg">
<path d="M20.5271 4.21691L14.5001 0.736912C13.7396 0.299534 12.8775 0.0693512 12.0001 0.0693512C11.1228 0.0693512 10.2607 0.299534 9.50014 0.736912L3.47314 4.21691C2.71402 4.65683 2.08362 5.28824 1.64492 6.04806C1.20622 6.80789 0.974581 7.66953 0.973145 8.54691V15.5069C0.974607 16.3844 1.20625 17.2462 1.64494 18.0062C2.08362 18.7662 2.71401 19.3978 3.47314 19.8379L9.50014 23.3169C10.2606 23.7546 11.1227 23.9849 12.0001 23.9849C12.8776 23.9849 13.7397 23.7546 14.5001 23.3169L20.5271 19.8379C21.2863 19.3978 21.9167 18.7662 22.3554 18.0062C22.794 17.2462 23.0257 16.3844 23.0271 15.5069V8.54691C23.0257 7.66953 22.7941 6.80789 22.3554 6.04806C21.9167 5.28824 21.2863 4.65683 20.5271 4.21691ZM10.5001 2.46991C10.9562 2.20661 11.4735 2.06799 12.0001 2.06799C12.5268 2.06799 13.0441 2.20661 13.5001 2.46991L19.5271 5.94891C19.68 6.04551 19.8236 6.15598 19.9561 6.27891L13.7631 9.85391C13.227 10.163 12.619 10.3257 12.0001 10.3257C11.3813 10.3257 10.7733 10.163 10.2371 9.85391L4.04414 6.27891C4.17671 6.15598 4.32032 6.04551 4.47314 5.94891L10.5001 2.46991ZM4.47314 18.1049C4.01735 17.8408 3.6389 17.4617 3.37566 17.0054C3.11242 16.5491 2.97362 16.0317 2.97314 15.5049V8.54691C2.98009 8.36676 3.00386 8.18764 3.04414 8.01191L9.23715 11.5869C9.78409 11.898 10.3804 12.1128 11.0001 12.2219V21.7909C10.8274 21.738 10.66 21.669 10.5001 21.5849L4.47314 18.1049ZM21.0271 15.5049C21.0267 16.0317 20.8879 16.5491 20.6246 17.0054C20.3614 17.4617 19.9829 17.8408 19.5271 18.1049L13.5001 21.5849C13.3403 21.669 13.1729 21.738 13.0001 21.7909V12.2219C13.6199 12.1128 14.2162 11.898 14.7631 11.5869L20.9561 8.01191C20.9964 8.18764 21.0202 8.36676 21.0271 8.54691V15.5049Z" fill="#ECEDEB"/>
</svg>
