<svg width="21" height="21" viewBox="0 0 21 21" fill="none" xmlns="http://www.w3.org/2000/svg">
<path d="M20.5057 19.0781L15.5315 14.1039C16.887 12.446 17.5535 10.3306 17.393 8.19519C17.2326 6.05974 16.2575 4.06766 14.6695 2.63098C13.0815 1.19431 11.002 0.422961 8.86119 0.476487C6.7204 0.530014 4.68207 1.40432 3.16783 2.91856C1.65359 4.4328 0.779282 6.47113 0.725755 8.61192C0.672229 10.7527 1.44358 12.8322 2.88025 14.4202C4.31693 16.0082 6.30901 16.9833 8.44445 17.1438C10.5799 17.3042 12.6953 16.6377 14.3532 15.2822L19.3273 20.2564C19.4845 20.4082 19.695 20.4922 19.9135 20.4903C20.132 20.4884 20.341 20.4007 20.4955 20.2462C20.65 20.0917 20.7377 19.8827 20.7395 19.6642C20.7414 19.4457 20.6575 19.2352 20.5057 19.0781ZM9.08315 15.5006C7.76461 15.5006 6.47568 15.1096 5.37935 14.377C4.28302 13.6445 3.42854 12.6033 2.92395 11.3851C2.41937 10.1669 2.28735 8.82649 2.54458 7.53328C2.80182 6.24008 3.43676 5.05219 4.36911 4.11984C5.30146 3.18749 6.48934 2.55255 7.78255 2.29532C9.07576 2.03808 10.4162 2.1701 11.6344 2.67469C12.8525 3.17927 13.8937 4.03375 14.6263 5.13008C15.3588 6.22641 15.7498 7.51534 15.7498 8.83389C15.7478 10.6014 15.0448 12.2959 13.795 13.5457C12.5452 14.7956 10.8507 15.4986 9.08315 15.5006Z" fill="black" fill-opacity="0.25"/>
</svg>
